RBDS025runT45_grf
version=1
nRows=15
nColumns=19
inDegrees=no
endheader
time	ground_force_r_vx	ground_force_r_vy	ground_force_r_vz	ground_force_r_px	ground_force_r_py	ground_force_r_pz	ground_force_r_mx	ground_force_r_my	ground_force_r_mz	ground_force_l_vx	ground_force_l_vy	ground_force_l_vz	ground_force_l_px	ground_force_l_py	ground_force_l_pz	ground_force_l_mx	ground_force_l_my	ground_force_l_mz
     14.99900000	      0.00000000	      0.00000000	      0.00000000	      0.00000000	      0.00000000	      0.00000000	      0.00000000	      0.00000000	      0.00000000	     93.83445542	   1506.73656337	     17.44797105	      1.92848924	      0.00000000	      0.94559406	      0.00000000	      7.10923841	     -0.00000000
     15.00000000	      0.00000000	      0.00000000	      0.00000000	      0.00000000	      0.00000000	      0.00000000	      0.00000000	      0.00000000	      0.00000000	    100.92590689	   1496.09854401	     15.94639100	      1.92422341	      0.00000000	      0.94564280	      0.00000000	      7.11918807	     -0.00000000
     15.00100000	      0.00000000	      0.00000000	      0.00000000	      0.00000000	      0.00000000	      0.00000000	      0.00000000	      0.00000000	      0.00000000	    107.55849914	   1483.70353030	     14.41911117	      1.91991746	      0.00000000	      0.94569339	      0.00000000	      7.11503654	     -0.00000000
     15.00200000	      0.00000000	      0.00000000	      0.00000000	      0.00000000	      0.00000000	      0.00000000	      0.00000000	      0.00000000	      0.00000000	    114.19109139	   1471.30851659	     12.89183134	      1.91561151	      0.00000000	      0.94574397	      0.00000000	      7.11088501	     -0.00000000
     15.00300000	      0.00000000	      0.00000000	      0.00000000	      0.00000000	      0.00000000	      0.00000000	      0.00000000	      0.00000000	      0.00000000	    120.82368364	   1458.91350288	     11.36455151	      1.91130556	      0.00000000	      0.94579455	      0.00000000	      7.10673347	     -0.00000000
     15.00400000	      0.00000000	      0.00000000	      0.00000000	      0.00000000	      0.00000000	      0.00000000	      0.00000000	      0.00000000	      0.00000000	    127.07635502	   1445.36024394	      9.84681594	      1.90697769	      0.00000000	      0.94584351	      0.00000000	      7.09417885	     -0.00000000
     15.00500000	      0.00000000	      0.00000000	      0.00000000	      0.00000000	      0.00000000	      0.00000000	      0.00000000	      0.00000000	      0.00000000	    133.13906595	   1431.22786239	      8.33385250	      1.90263888	      0.00000000	      0.94589166	      0.00000000	      7.07742268	     -0.00000000
     15.00600000	      0.00000000	      0.00000000	      0.00000000	      0.00000000	      0.00000000	      0.00000000	      0.00000000	      0.00000000	      0.00000000	    139.20177689	   1417.09548083	      6.82088906	      1.89830006	      0.00000000	      0.94593980	      0.00000000	      7.06066651	     -0.00000000
     15.00700000	      0.00000000	      0.00000000	      0.00000000	      0.00000000	      0.00000000	      0.00000000	      0.00000000	      0.00000000	      0.00000000	    145.04152629	   1402.40125867	      5.32518173	      1.89395299	      0.00000000	      0.94598571	      0.00000000	      7.04025390	     -0.00000000
     15.00800000	      0.00000000	      0.00000000	      0.00000000	      0.00000000	      0.00000000	      0.00000000	      0.00000000	      0.00000000	      0.00000000	    150.43535262	   1386.58335528	      3.86398660	      1.88958944	      0.00000000	      0.94602715	      0.00000000	      7.01252842	     -0.00000000
     15.00900000	      0.00000000	      0.00000000	      0.00000000	      0.00000000	      0.00000000	      0.00000000	      0.00000000	      0.00000000	      0.00000000	    155.82917895	   1370.76545189	      2.40279148	      1.88522588	      0.00000000	      0.94606858	      0.00000000	      6.98480293	     -0.00000000
     15.01000000	      0.00000000	      0.00000000	      0.00000000	      0.00000000	      0.00000000	      0.00000000	      0.00000000	      0.00000000	      0.00000000	    161.22300529	   1354.94754851	      0.94159636	      1.88086233	      0.00000000	      0.94611002	      0.00000000	      6.95707745	     -0.00000000
     15.01100000	      0.00000000	      0.00000000	      0.00000000	      0.00000000	      0.00000000	      0.00000000	      0.00000000	      0.00000000	      0.00000000	    165.86326474	   1337.52882883	     -0.43412900	      1.87648333	      0.00000000	      0.94614062	      0.00000000	      6.92012418	     -0.00000000
     15.01200000	      0.00000000	      0.00000000	      0.00000000	      0.00000000	      0.00000000	      0.00000000	      0.00000000	      0.00000000	      0.00000000	    170.50352420	   1320.11010915	     -1.80985435	      1.87210433	      0.00000000	      0.94617122	      0.00000000	      6.88317091	     -0.00000000
     15.01300000	      0.00000000	      0.00000000	      0.00000000	      0.00000000	      0.00000000	      0.00000000	      0.00000000	      0.00000000	      0.00000000	    175.14378366	   1302.69138947	     -3.18557970	      1.86772533	      0.00000000	      0.94620182	      0.00000000	      6.84621765	     -0.00000000
